<?xml version="1.0" encoding="utf-8"?>
<!-- Generator: Adobe Illustrator 18.1.0, SVG Export Plug-In . SVG Version: 6.00 Build 0)  -->
<!DOCTYPE svg PUBLIC "-//W3C//DTD SVG 1.1//EN" "http://www.w3.org/Graphics/SVG/1.1/DTD/svg11.dtd">
<svg version="1.1" id="Layer_1" xmlns="http://www.w3.org/2000/svg" xmlns:xlink="http://www.w3.org/1999/xlink" x="0px" y="0px"
	 viewBox="0 0 20 20" enable-background="new 0 0 20 20" xml:space="preserve">
<g>
	<path fill="#FAFAFA" d="M10,0C4.5,0,0,4.5,0,10c0,4.8,3.4,8.8,8,9.8c0-1.2,0-2.5,0-2.9C7.6,16.9,7.3,17,7.1,17c-1.6,0-2-1.2-2-1.2
		c-0.4-1-0.9-1.2-0.9-1.2C3.4,14,4.1,14,4.2,14c0,0,0,0,0,0c0.9,0.1,1.3,0.9,1.3,0.9c0.4,0.7,1,0.9,1.5,0.9c0.4,0,0.8-0.1,1-0.2
		c0.1-0.6,0.3-0.9,0.5-1.1c-1.9-0.2-3.9-0.9-3.9-4.2c0-0.9,0.3-1.7,0.9-2.3C5.4,7.7,5.1,6.8,5.6,5.7c0,0,0.1,0,0.2,0
		c0.3,0,1,0.1,2.2,0.9c0.7-0.2,1.4-0.3,2.1-0.3c0.7,0,1.5,0.1,2.1,0.3c1.1-0.8,1.8-0.9,2.2-0.9c0.1,0,0.2,0,0.2,0
		c0.5,1.2,0.2,2,0.1,2.3c0.5,0.6,0.9,1.4,0.9,2.3c0,3.3-2,4-3.9,4.2c0.3,0.3,0.6,0.8,0.6,1.6c0,0.7,0,2.4,0,3.8c4.5-1,7.8-5,7.8-9.8
		C20,4.5,15.5,0,10,0"/>
</g>
</svg>
