<?xml version="1.0" encoding="utf-8"?>
<!-- Generator: Adobe Illustrator 18.1.0, SVG Export Plug-In . SVG Version: 6.00 Build 0)  -->
<!DOCTYPE svg PUBLIC "-//W3C//DTD SVG 1.1//EN" "http://www.w3.org/Graphics/SVG/1.1/DTD/svg11.dtd">
<svg version="1.1" id="Layer_1" xmlns="http://www.w3.org/2000/svg" xmlns:xlink="http://www.w3.org/1999/xlink" x="0px" y="0px"
	 viewBox="0 0 20 20" enable-background="new 0 0 20 20" xml:space="preserve">
<g>
	<path fill="#FAFAFA" d="M5.3,14.6V7.8h2.1v6.8H5.3 M10.8,8.7L10.8,8.7c0.3-0.5,1-1.1,2-1.1c2.1,0,2.5,1.4,2.5,3.2v3.7h-2.1v-3.3
		c0-0.8,0-1.8-1.1-1.8c-1.1,0-1.3,0.9-1.3,1.7v3.4H8.8V7.8h2V8.7 M6.4,6.9c-0.7,0-1.2-0.5-1.2-1.2c0-0.7,0.5-1.2,1.2-1.2
		c0.7,0,1.2,0.5,1.2,1.2C7.6,6.3,7.1,6.9,6.4,6.9 M10,0C4.5,0,0,4.5,0,10c0,5.5,4.5,10,10,10c5.5,0,10-4.5,10-10C20,4.5,15.5,0,10,0
		"/>
</g>
</svg>
